<svg width="126" height="131" viewBox="0 0 126 131" fill="none" xmlns="http://www.w3.org/2000/svg">
<path d="M62.7723 118.843C90.9179 118.843 113.734 96.0266 113.734 67.8809C113.734 39.7353 90.9179 16.9187 62.7723 16.9187C34.6266 16.9187 11.8101 39.7353 11.8101 67.8809C11.8101 96.0266 34.6266 118.843 62.7723 118.843Z" stroke="#3AD29F" stroke-width="2" stroke-miterlimit="10" stroke-dasharray="12 12"/>
<path d="M62.7724 129.653C96.8883 129.653 124.545 101.997 124.545 67.8809C124.545 33.765 96.8883 6.10854 62.7724 6.10854C28.6564 6.10854 1 33.765 1 67.8809C1 101.997 28.6564 129.653 62.7724 129.653Z" stroke="#3AD29F" stroke-width="2" stroke-miterlimit="10" stroke-dasharray="12 12"/>
<path d="M104.109 87.5623C104.109 79.858 97.8798 73.6292 90.1754 73.6292C83.4834 73.6292 77.7351 78.3823 76.4825 84.9713L33.6537 83.8045L34.117 91.1657C34.117 91.1657 28.0084 105.253 60.1128 109.011L60.1128 123.253H97.2106V99.5736C101.483 97.0684 104.109 92.5041 104.109 87.5623Z" fill="url(#paint0_linear)"/>
<path d="M35.6098 91.4574C35.6098 91.4574 29.7586 104.944 60.5075 108.548V122.189H96.0438V86.0695L35.1465 84.4222L35.6098 91.4574Z" fill="#BE7C5E"/>
<path d="M53.3694 35.1587C51.4476 38.1959 47.4152 39.1224 44.3609 37.2006L25.2801 24.6231C22.243 22.7013 21.3164 18.6689 23.2382 15.6146C25.16 12.5775 29.1924 11.6681 32.2467 13.5727L51.3275 26.1502C54.3474 28.0721 55.274 32.0873 53.3694 35.1587Z" fill="url(#paint1_linear)"/>
<path d="M52.3055 34.4724C50.521 37.3036 46.7632 38.1444 43.932 36.3771L26.1896 24.6746C23.3583 22.8901 22.5175 19.1323 24.2849 16.301C26.0694 13.4698 29.8273 12.629 32.6585 14.3964L50.4009 26.0817C53.2321 27.8834 54.0901 31.624 52.3055 34.4724Z" fill="#BE7C5E"/>
<path d="M89.283 101.358C96.6559 101.358 102.633 95.3812 102.633 88.0084C102.633 80.6356 96.6559 74.6587 89.283 74.6587C81.9102 74.6587 75.9333 80.6356 75.9333 88.0084C75.9333 95.3812 81.9102 101.358 89.283 101.358Z" fill="#BE7C5E"/>
<path d="M35.7641 0L86.8808 0C88.0476 0 88.9913 0.943745 88.9913 2.11056L88.9913 97.7719C88.9913 98.9387 88.0476 99.8825 86.8808 99.8825L35.7641 99.8825C34.5973 99.8825 33.6536 98.9387 33.6536 97.7719L33.6536 2.11056C33.6536 0.943745 34.5973 0 35.7641 0Z" fill="url(#paint2_linear)"/>
<path d="M36.7421 1.35547L85.8854 1.35547C87.1723 1.35547 88.219 2.40217 88.219 3.68909L88.219 96.1761C88.219 97.463 87.1723 98.5097 85.8854 98.5097H36.7421C35.4551 98.5097 34.4084 97.463 34.4084 96.1761L34.4084 3.68909C34.4084 2.40217 35.4551 1.35547 36.7421 1.35547Z" fill="white"/>
<path d="M74.8353 3.79209C74.5092 5.91981 72.6904 7.49843 70.5284 7.49843L51.9452 7.49843C49.8003 7.49843 47.9643 5.91981 47.6383 3.79209L37.789 3.79209C36.6565 3.79209 35.7471 4.70152 35.7471 5.83401L35.7471 94.0312C35.7471 95.1637 36.6565 96.0732 37.789 96.0732H84.8218C85.9543 96.0732 86.8637 95.1637 86.8637 94.0312L86.8637 5.83401C86.8637 4.70152 85.9543 3.79209 84.8218 3.79209L74.8353 3.79209Z" fill="#FF6366"/>
<path d="M55.7372 4.94176L67.045 4.94176C67.2337 4.94176 67.3882 5.0962 67.3882 5.28494V5.35358C67.3882 5.54233 67.2337 5.69676 67.045 5.69676L55.7372 5.69676C55.5485 5.69676 55.394 5.54233 55.394 5.35358V5.28494C55.394 5.0962 55.5485 4.94176 55.7372 4.94176Z" fill="#DBDBDB"/>
<path d="M69.9449 5.69672C70.1913 5.69672 70.391 5.49698 70.391 5.25058C70.391 5.00419 70.1913 4.80445 69.9449 4.80445C69.6985 4.80445 69.4988 5.00419 69.4988 5.25058C69.4988 5.49698 69.6985 5.69672 69.9449 5.69672Z" fill="#DBDBDB"/>
<path d="M97.914 90.3764C94.0361 91.2686 91.3764 88.7463 90.4842 84.8683L81.5787 51.8201C80.6864 47.9422 83.1058 44.0642 86.9837 43.1548C90.8617 42.2625 94.7396 44.682 95.649 48.5599L102.924 82.4661C103.817 86.344 101.775 89.4669 97.914 90.3764Z" fill="url(#paint3_linear)"/>
<path d="M87.3784 44.8364C90.6386 44.0814 93.8988 46.1233 94.6538 49.3836L102.839 84.7997C103.594 88.0599 101.552 91.3201 98.2915 92.0751C95.0313 92.8301 91.7711 90.7882 91.0161 87.528L82.8313 52.1118C82.0763 48.8516 84.1182 45.5914 87.3784 44.8364Z" fill="#BE7C5E"/>
<path d="M102.564 117.745H51.7734V129.585H102.564V117.745Z" fill="url(#paint4_linear)"/>
<path d="M101.191 119.118H53.146V128.384H101.191V119.118Z" fill="#4D8AF0"/>
<path d="M45.9565 70.592C44.0519 73.5949 40.071 74.5043 37.051 72.6168L24.2675 64.3462C21.2647 62.4415 20.3553 58.4606 22.2428 55.4406C24.1474 52.4378 28.1283 51.5284 31.1483 53.4159L43.9489 61.7037C46.9346 63.6083 47.844 67.5892 45.9565 70.592Z" fill="url(#paint5_linear)"/>
<path d="M42.7479 88.1286C40.826 91.1657 36.8108 92.0751 33.7737 90.1705L25.8462 84.3879C22.8091 82.4661 21.8997 78.4509 23.8043 75.4137C25.7261 72.3766 29.7413 71.4672 32.7785 73.3718L40.7059 79.1544C43.7431 81.0591 44.6525 85.0743 42.7479 88.1286Z" fill="url(#paint6_linear)"/>
<g opacity="0.5">
<path opacity="0.5" d="M61.3139 65.3585C69.8334 65.3585 76.7398 58.4521 76.7398 49.9326C76.7398 41.4131 69.8334 34.5067 61.3139 34.5067C52.7944 34.5067 45.8879 41.4131 45.8879 49.9326C45.8879 58.4521 52.7944 65.3585 61.3139 65.3585Z" fill="url(#paint7_linear)"/>
</g>
<path d="M61.3139 64.4491C69.3311 64.4491 75.8304 57.9499 75.8304 49.9326C75.8304 41.9154 69.3311 35.4161 61.3139 35.4161C53.2966 35.4161 46.7974 41.9154 46.7974 49.9326C46.7974 57.9499 53.2966 64.4491 61.3139 64.4491Z" fill="#69F0AE"/>
<path d="M55.0165 47.9937L60.4559 52.987L68.1775 41.6449L70.9057 43.9099L60.4559 57.5341L52.7344 48.9031L55.0165 47.9937Z" fill="white"/>
<path d="M42.0959 87.6995C40.3113 90.5308 36.5535 91.3716 33.7223 89.6042L26.3268 84.2163C23.4955 82.4317 22.6547 78.6739 24.4221 75.8427C26.2066 73.0114 29.9645 72.1707 32.7957 73.938L40.1912 79.3259C43.0225 81.1276 43.8804 84.8511 42.0959 87.6995Z" fill="#BE7C5E"/>
<path d="M45.253 70.1459C43.4685 72.9771 39.7107 73.8179 36.8795 72.0505L24.8338 64.2604C22.0026 62.4758 21.1618 58.718 22.9292 55.8868C24.7137 53.0555 28.4715 52.2148 31.3028 53.9821L43.3484 61.7723C46.1796 63.5568 47.0376 67.2975 45.253 70.1459Z" fill="#BE7C5E"/>
<path d="M49.2681 53.1585C47.3463 56.1785 43.3654 57.0879 40.3283 55.1832L24.113 44.6305C21.0931 42.7087 20.1836 38.7278 22.0883 35.6906C24.0101 32.6706 27.991 31.7612 31.0281 33.6659L47.2434 44.2186C50.2462 46.1233 51.1556 50.1213 49.2681 53.1585Z" fill="url(#paint8_linear)"/>
<path d="M48.4102 52.6095C46.6257 55.4407 42.8679 56.2815 40.0366 54.5141L24.8509 44.6134C22.0197 42.8288 21.1789 39.071 22.9463 36.2398C24.7308 33.4086 28.4886 32.5678 31.3199 34.3351L46.5056 44.2187C49.3368 46.0204 50.1776 49.7611 48.4102 52.6095Z" fill="#BE7C5E"/>
<defs>
<linearGradient id="paint0_linear" x1="68.8888" y1="123.241" x2="68.8888" y2="73.6173" gradientUnits="userSpaceOnUse">
<stop stop-color="#808080" stop-opacity="0.25"/>
<stop offset="0.54" stop-color="#808080" stop-opacity="0.12"/>
<stop offset="1" stop-color="#808080" stop-opacity="0.1"/>
</linearGradient>
<linearGradient id="paint1_linear" x1="38.2942" y1="38.1972" x2="38.2942" y2="12.5758" gradientUnits="userSpaceOnUse">
<stop stop-color="#808080" stop-opacity="0.25"/>
<stop offset="0.54" stop-color="#808080" stop-opacity="0.12"/>
<stop offset="1" stop-color="#808080" stop-opacity="0.1"/>
</linearGradient>
<linearGradient id="paint2_linear" x1="61.319" y1="99.8585" x2="61.319" y2="0" gradientUnits="userSpaceOnUse">
<stop stop-color="#808080" stop-opacity="0.25"/>
<stop offset="0.54" stop-color="#808080" stop-opacity="0.12"/>
<stop offset="1" stop-color="#808080" stop-opacity="0.1"/>
</linearGradient>
<linearGradient id="paint3_linear" x1="92.2664" y1="90.5503" x2="92.2664" y2="42.9756" gradientUnits="userSpaceOnUse">
<stop stop-color="#808080" stop-opacity="0.25"/>
<stop offset="0.54" stop-color="#808080" stop-opacity="0.12"/>
<stop offset="1" stop-color="#808080" stop-opacity="0.1"/>
</linearGradient>
<linearGradient id="paint4_linear" x1="77.1739" y1="129.576" x2="77.1739" y2="117.736" gradientUnits="userSpaceOnUse">
<stop stop-color="#808080" stop-opacity="0.25"/>
<stop offset="0.54" stop-color="#808080" stop-opacity="0.12"/>
<stop offset="1" stop-color="#808080" stop-opacity="0.1"/>
</linearGradient>
<linearGradient id="paint5_linear" x1="34.0971" y1="73.6082" x2="34.0971" y2="52.4331" gradientUnits="userSpaceOnUse">
<stop stop-color="#808080" stop-opacity="0.25"/>
<stop offset="0.54" stop-color="#808080" stop-opacity="0.12"/>
<stop offset="1" stop-color="#808080" stop-opacity="0.1"/>
</linearGradient>
<linearGradient id="paint6_linear" x1="33.2697" y1="91.1605" x2="33.2697" y2="72.3681" gradientUnits="userSpaceOnUse">
<stop stop-color="#808080" stop-opacity="0.25"/>
<stop offset="0.54" stop-color="#808080" stop-opacity="0.12"/>
<stop offset="1" stop-color="#808080" stop-opacity="0.1"/>
</linearGradient>
<linearGradient id="paint7_linear" x1="61.3173" y1="65.3637" x2="61.3173" y2="34.4981" gradientUnits="userSpaceOnUse">
<stop stop-color="#808080" stop-opacity="0.25"/>
<stop offset="0.54" stop-color="#808080" stop-opacity="0.12"/>
<stop offset="1" stop-color="#808080" stop-opacity="0.1"/>
</linearGradient>
<linearGradient id="paint8_linear" x1="35.6705" y1="56.1791" x2="35.6705" y2="32.6666" gradientUnits="userSpaceOnUse">
<stop stop-color="#808080" stop-opacity="0.25"/>
<stop offset="0.54" stop-color="#808080" stop-opacity="0.12"/>
<stop offset="1" stop-color="#808080" stop-opacity="0.1"/>
</linearGradient>
</defs>
</svg>
