<svg width="211" height="263" viewBox="0 0 211 263" fill="none" xmlns="http://www.w3.org/2000/svg">
<g opacity="0.25">
<path d="M85 132.265C85.0832 128.267 86.436 125.083 89.0582 122.713C91.7638 120.238 95.4682 119 100.172 119C104.605 119 108.195 120.142 110.942 122.427C113.647 124.691 115 127.643 115 131.282C115 135.788 112.773 139.374 108.319 142.04C106.238 143.267 104.833 144.367 104.105 145.34C103.377 146.314 103.012 147.583 103.012 149.149V150.831H94.7398L94.6774 148.99C94.4693 146.536 94.8127 144.494 95.7076 142.865C96.5817 141.321 98.1113 139.892 100.297 138.581C102.315 137.354 103.689 136.253 104.417 135.28C105.166 134.307 105.541 133.069 105.541 131.567C105.541 130.044 105 128.796 103.918 127.822C102.815 126.849 101.379 126.363 99.6097 126.363C97.8199 126.363 96.3735 126.902 95.2705 127.981C94.1675 129.039 93.564 130.467 93.4599 132.265H85ZM98.9854 166C97.5702 166 96.3735 165.513 95.3954 164.54C94.3964 163.588 93.8969 162.414 93.8969 161.018C93.8969 159.621 94.3964 158.436 95.3954 157.463C96.3735 156.511 97.5702 156.035 98.9854 156.035C100.401 156.035 101.608 156.511 102.607 157.463C103.606 158.436 104.105 159.621 104.105 161.018C104.105 162.414 103.606 163.588 102.607 164.54C101.608 165.513 100.401 166 98.9854 166Z" fill="#C8C8C8"/>
<path d="M179.625 36.7609C181.347 32.8694 183.981 30.2985 187.528 29.048C191.2 27.7279 195.344 28.0327 199.962 29.9624C204.314 31.7811 207.369 34.3756 209.129 37.7459C210.856 41.0784 210.973 44.5308 209.48 48.1033C207.631 52.5274 203.974 55.1344 198.508 55.9242C195.961 56.275 194.131 56.7787 193.016 57.4353C191.902 58.0919 191.024 59.1887 190.381 60.7257L189.691 62.377L181.57 58.9829L182.264 57.1503C183.066 54.6555 184.241 52.7921 185.788 51.5599C187.28 50.4023 189.367 49.6279 192.051 49.2366C194.536 48.8602 196.336 48.3437 197.45 47.6871C198.585 47.039 199.461 45.9777 200.077 44.503C200.702 43.0075 200.683 41.5601 200.02 40.1606C199.336 38.7526 198.126 37.6858 196.389 36.96C194.632 36.2257 192.991 36.1619 191.465 36.7686C189.948 37.3546 188.77 38.509 187.93 40.2318L179.625 36.7609ZM179.514 75.6171C178.125 75.0365 177.15 74.0678 176.589 72.7111C175.998 71.3666 175.99 70.0089 176.563 68.638C177.136 67.2672 178.112 66.309 179.492 65.7634C180.843 65.23 182.213 65.2537 183.602 65.8343C184.992 66.4149 185.981 67.3775 186.572 68.722C187.153 70.0873 187.157 71.4553 186.584 72.8262C186.011 74.197 185.039 75.1449 183.668 75.6697C182.288 76.2153 180.903 76.1977 179.514 75.6171Z" fill="#C8C8C8"/>
<path d="M0.419111 85.7491C-0.263427 81.7944 0.46029 78.3993 2.59026 75.5638C4.78201 72.6082 8.19442 70.6807 12.8275 69.7814C17.194 68.9339 20.9488 69.3728 24.0917 71.0984C27.1896 72.811 29.0864 75.4596 29.7822 79.0441C30.6438 83.4831 29.1359 87.4413 25.2585 90.9187C23.4431 92.5254 22.2697 93.8777 21.7383 94.9756C21.2069 96.0735 21.0908 97.3936 21.3902 98.9358L21.7117 100.593L13.5629 102.174L13.1495 100.373C12.4752 97.9954 12.4231 95.9187 12.9931 94.1429C13.5589 92.4544 14.7926 90.7552 16.6943 89.0453C18.4482 87.4506 19.5909 86.1042 20.1223 85.0063C20.6742 83.9044 20.8066 82.6136 20.5194 81.134C20.2281 79.6335 19.4565 78.5073 18.2044 77.7556C16.9318 77.0079 15.4242 76.8031 13.6817 77.1413C11.9187 77.4835 10.5971 78.2915 9.71685 79.5653C8.83259 80.8182 8.51113 82.3403 8.75247 84.1316L0.419111 85.7491ZM20.6453 116.305C19.2513 116.576 17.9795 116.325 16.8299 115.553C15.6639 114.807 14.9474 113.746 14.6804 112.37C14.4134 110.995 14.6789 109.732 15.4768 108.582C16.2583 107.458 17.346 106.76 18.7401 106.489C20.1341 106.219 21.4141 106.457 22.5802 107.204C23.7502 107.971 24.4688 109.043 24.7358 110.418C25.0027 111.794 24.7352 113.046 23.9333 114.175C23.1353 115.324 22.0394 116.034 20.6453 116.305Z" fill="#C8C8C8"/>
<path d="M171.177 236.799C170.749 233.636 171.423 230.958 173.198 228.766C175.025 226.48 177.793 225.047 181.502 224.466C184.997 223.918 187.969 224.376 190.417 225.838C192.83 227.289 194.261 229.449 194.711 232.318C195.267 235.872 193.954 238.974 190.772 241.626C189.282 242.851 188.31 243.892 187.856 244.749C187.402 245.606 187.272 246.652 187.465 247.887L187.673 249.213L181.15 250.235L180.873 248.791C180.406 246.881 180.425 245.229 180.929 243.834C181.428 242.509 182.458 241.194 184.019 239.889C185.459 238.673 186.406 237.635 186.86 236.778C187.331 235.918 187.473 234.896 187.288 233.712C187.1 232.511 186.519 231.593 185.545 230.959C184.555 230.328 183.363 230.122 181.968 230.34C180.557 230.561 179.483 231.165 178.747 232.152C178.008 233.123 177.708 234.323 177.848 235.754L171.177 236.799ZM186.371 261.671C185.255 261.846 184.251 261.61 183.36 260.963C182.455 260.336 181.916 259.472 181.743 258.371C181.571 257.27 181.818 256.274 182.486 255.383C183.14 254.512 184.024 253.989 185.14 253.814C186.256 253.639 187.267 253.865 188.172 254.493C189.08 255.137 189.62 256.009 189.792 257.11C189.965 258.211 189.716 259.199 189.046 260.073C188.378 260.964 187.487 261.496 186.371 261.671Z" fill="#C8C8C8"/>
<path d="M69.2496 15.4251C68.3333 12.3675 68.5808 9.61749 69.9921 7.17525C71.4408 4.63226 73.9514 2.78467 77.524 1.63247C80.8911 0.546554 83.8979 0.534907 86.5443 1.59753C89.1539 2.65428 90.9044 4.5647 91.7959 7.32878C92.8998 10.7517 92.0868 14.0212 89.3569 17.137C88.0767 18.5789 87.2792 19.7587 86.9643 20.6764C86.6494 21.5941 86.6838 22.6475 87.0673 23.8367L87.4793 25.1143L81.1956 27.1408L80.6973 25.758C79.938 23.9448 79.6987 22.3099 79.9794 20.8533C80.265 19.466 81.077 18.0066 82.4155 16.4749C83.6483 15.0483 84.4221 13.8762 84.737 12.9585C85.0677 12.0357 85.0491 11.0039 84.6811 9.86287C84.3079 8.70581 83.5911 7.89022 82.5307 7.41609C81.4545 6.94707 80.2445 6.92923 78.9008 7.36258C77.5413 7.80102 76.5748 8.56514 76.0013 9.65493C75.4226 10.7286 75.314 11.9612 75.6755 13.3527L69.2496 15.4251ZM88.1365 37.6232C87.0616 37.9698 86.0334 37.8934 85.052 37.3937C84.06 36.9153 83.393 36.1458 83.0509 35.0851C82.7088 34.0245 82.798 33.0022 83.3184 32.0182C83.8281 31.0555 84.6205 30.4007 85.6954 30.0541C86.7704 29.7074 87.8038 29.7733 88.7959 30.2517C89.7931 30.7462 90.4627 31.5238 90.8047 32.5844C91.1468 33.6451 91.0551 34.6593 90.5295 35.6272C90.0091 36.6112 89.2115 37.2765 88.1365 37.6232Z" fill="#C8C8C8"/>
<path d="M19.1432 234.097C19.5579 230.932 20.9088 228.524 23.1957 226.873C25.558 225.145 28.6047 224.486 32.3361 224.896C35.8528 225.283 38.6012 226.502 40.5813 228.555C42.5302 230.587 43.346 233.046 43.0287 235.933C42.6357 239.508 40.5563 242.159 36.7906 243.885C35.0326 244.677 33.8222 245.427 33.1595 246.136C32.4967 246.844 32.0971 247.82 31.9606 249.062L31.8139 250.396L25.251 249.675L25.362 248.209C25.4109 246.244 25.8614 244.654 26.7134 243.44C27.5415 242.291 28.8796 241.291 30.7276 240.441C32.4361 239.644 33.6217 238.891 34.2844 238.182C34.9637 237.475 35.3688 236.526 35.4998 235.335C35.6326 234.126 35.3122 233.089 34.5386 232.222C33.7484 231.354 32.6516 230.843 31.2482 230.688C29.8283 230.532 28.6338 230.834 27.6647 231.594C26.6974 232.337 26.094 233.417 25.8546 234.835L19.1432 234.097ZM27.2963 262.079C26.1736 261.956 25.2666 261.465 24.5755 260.608C23.8661 259.766 23.5722 258.791 23.694 257.683C23.8158 256.575 24.3153 255.679 25.1927 254.994C26.0517 254.324 27.0426 254.05 28.1653 254.174C29.288 254.297 30.2041 254.78 30.9135 255.623C31.6212 256.482 31.9141 257.465 31.7923 258.573C31.6705 259.681 31.1719 260.569 30.2964 261.237C29.419 261.922 28.419 262.203 27.2963 262.079Z" fill="#C8C8C8"/>
</g>
</svg>
