<svg width="166" height="168" viewBox="0 0 166 168" fill="none" xmlns="http://www.w3.org/2000/svg">
<g opacity="0.25">
<path d="M66.9447 84.1393C67.0104 80.9716 68.0779 78.4492 70.1473 76.572C72.2824 74.611 75.2059 73.6305 78.9177 73.6305C82.416 73.6305 85.2491 74.5356 87.4171 76.3457C89.5522 78.1391 90.6197 80.4772 90.6197 83.36C90.6197 86.9299 88.8624 89.7708 85.3477 91.8827C83.7053 92.8548 82.5967 93.7263 82.0218 94.4973C81.447 95.2683 81.1596 96.2739 81.1596 97.5142V98.8466H74.6311L74.5818 97.3885C74.4176 95.4443 74.6885 93.8269 75.3948 92.5363C76.0846 91.3128 77.2917 90.1815 79.0162 89.1423C80.6094 88.1702 81.6933 87.2987 82.2682 86.5277C82.8594 85.7567 83.1551 84.7762 83.1551 83.5862C83.1551 82.3795 82.7281 81.3906 81.874 80.6196C81.0035 79.8487 79.8703 79.4632 78.4743 79.4632C77.0618 79.4632 75.9203 79.8906 75.0499 80.7453C74.1794 81.5834 73.7031 82.7147 73.621 84.1393H66.9447ZM77.9815 110.864C76.8647 110.864 75.9203 110.478 75.1484 109.707C74.3601 108.953 73.9659 108.023 73.9659 106.917C73.9659 105.811 74.3601 104.872 75.1484 104.101C75.9203 103.347 76.8647 102.97 77.9815 102.97C79.0984 102.97 80.051 103.347 80.8393 104.101C81.6277 104.872 82.0218 105.811 82.0218 106.917C82.0218 108.023 81.6277 108.953 80.8393 109.707C80.051 110.478 79.0984 110.864 77.9815 110.864Z" fill="#C8C8C8"/>
<path d="M141.62 28.4808C142.979 25.398 145.058 23.3613 147.857 22.3708C150.754 21.325 154.025 21.5664 157.669 23.0951C161.103 24.5359 163.515 26.5913 164.903 29.2612C166.266 31.9012 166.359 34.6362 165.181 37.4663C163.722 40.9711 160.835 43.0363 156.522 43.662C154.512 43.9399 153.067 44.339 152.188 44.8591C151.308 45.3793 150.615 46.2481 150.108 47.4658L149.564 48.7739L143.155 46.0851L143.702 44.6333C144.335 42.657 145.263 41.1807 146.483 40.2046C147.661 39.2875 149.308 38.6741 151.426 38.3641C153.387 38.0659 154.808 37.6567 155.687 37.1366C156.583 36.6232 157.273 35.7824 157.76 34.6141C158.253 33.4294 158.238 32.2828 157.715 31.1741C157.175 30.0587 156.22 29.2135 154.85 28.6386C153.463 28.0569 152.168 28.0063 150.964 28.487C149.767 28.9512 148.837 29.8657 148.174 31.2305L141.62 28.4808ZM141.532 59.2627C140.436 58.8027 139.666 58.0353 139.224 56.9605C138.758 55.8954 138.751 54.8199 139.203 53.7339C139.655 52.6479 140.426 51.8888 141.515 51.4566C142.581 51.0341 143.662 51.0528 144.759 51.5127C145.855 51.9727 146.636 52.7353 147.102 53.8004C147.561 54.882 147.564 55.9657 147.112 57.0517C146.66 58.1377 145.893 58.8886 144.81 59.3043C143.721 59.7365 142.629 59.7227 141.532 59.2627Z" fill="#C8C8C8"/>
<path d="M0.196075 47.2893C-0.342564 44.1563 0.228572 41.4667 1.90948 39.2205C3.63914 36.879 6.33211 35.3521 9.98838 34.6397C13.4343 33.9682 16.3975 34.316 18.8777 35.6829C21.3225 37.0397 22.8194 39.1379 23.3685 41.9775C24.0484 45.4941 22.8585 48.6298 19.7986 51.3846C18.3659 52.6574 17.4399 53.7287 17.0205 54.5984C16.6011 55.4682 16.5095 56.514 16.7458 57.7357L16.9996 59.0482L10.5687 60.3012L10.2425 58.8744C9.71038 56.9908 9.66926 55.3456 10.1191 53.9388C10.5656 52.6012 11.5392 51.2551 13.04 49.9005C14.4241 48.6371 15.3258 47.5706 15.7452 46.7008C16.1808 45.8279 16.2852 44.8053 16.0586 43.6331C15.8287 42.4444 15.2198 41.5523 14.2317 40.9568C13.2274 40.3644 12.0376 40.2022 10.6625 40.4702C9.27117 40.7413 8.22819 41.3813 7.53356 42.3904C6.83573 43.383 6.58205 44.5888 6.77251 46.0079L0.196075 47.2893ZM16.158 71.4956C15.0579 71.71 14.0542 71.5115 13.147 70.9002C12.2268 70.3086 11.6613 69.4679 11.4506 68.3783C11.2399 67.2887 11.4494 66.2885 12.0791 65.3777C12.6959 64.4866 13.5543 63.9339 14.6544 63.7195C15.7545 63.5052 16.7647 63.6938 17.6849 64.2854C18.6083 64.8936 19.1753 65.7425 19.386 66.8321C19.5967 67.9217 19.3856 68.9137 18.7527 69.8079C18.123 70.7187 17.2581 71.2812 16.158 71.4956Z" fill="#C8C8C8"/>
<path d="M144.953 146.951C144.615 144.445 145.147 142.323 146.548 140.587C147.99 138.776 150.174 137.64 153.101 137.18C155.859 136.747 158.205 137.109 160.137 138.268C162.041 139.417 163.17 141.128 163.525 143.401C163.964 146.216 162.928 148.674 160.416 150.775C159.241 151.745 158.474 152.569 158.116 153.249C157.757 153.928 157.654 154.756 157.807 155.734L157.971 156.785L152.823 157.594L152.605 156.451C152.236 154.938 152.251 153.629 152.649 152.524C153.042 151.474 153.855 150.432 155.087 149.399C156.224 148.435 156.971 147.613 157.33 146.934C157.701 146.253 157.813 145.443 157.667 144.505C157.519 143.553 157.06 142.827 156.292 142.325C155.511 141.825 154.57 141.661 153.469 141.834C152.355 142.009 151.508 142.488 150.927 143.27C150.343 144.038 150.107 144.989 150.217 146.123L144.953 146.951ZM156.943 166.654C156.063 166.793 155.271 166.606 154.567 166.094C153.853 165.597 153.428 164.912 153.292 164.04C153.155 163.168 153.351 162.379 153.878 161.673C154.393 160.983 155.092 160.568 155.972 160.43C156.853 160.291 157.65 160.471 158.365 160.968C159.081 161.478 159.507 162.169 159.644 163.041C159.78 163.913 159.583 164.696 159.054 165.388C158.528 166.094 157.824 166.516 156.943 166.654Z" fill="#C8C8C8"/>
<path d="M64.5149 11.5787C63.7918 9.15642 63.9871 6.97791 65.1009 5.04317C66.2442 3.02862 68.2255 1.56496 71.0449 0.652192C73.7021 -0.208071 76.0749 -0.217297 78.1634 0.624512C80.2228 1.46167 81.6043 2.9751 82.3078 5.1648C83.179 7.87647 82.5374 10.4665 80.383 12.9349C79.3728 14.0771 78.7434 15.0118 78.4949 15.7387C78.2464 16.4657 78.2735 17.3003 78.5761 18.2423L78.9013 19.2544L73.9424 20.8599L73.5491 19.7644C72.9499 18.328 72.7611 17.0328 72.9826 15.8789C73.208 14.7799 73.8488 13.6237 74.9051 12.4103C75.878 11.2802 76.4887 10.3516 76.7372 9.62465C76.9981 8.89364 76.9834 8.07619 76.693 7.1723C76.3985 6.25568 75.8328 5.60957 74.996 5.23397C74.1467 4.8624 73.1918 4.84827 72.1314 5.19157C71.0585 5.5389 70.2958 6.14424 69.8432 7.00757C69.3865 7.85816 69.3008 8.83462 69.5861 9.93694L64.5149 11.5787ZM79.4199 29.1639C78.5716 29.4386 77.7602 29.378 76.9857 28.9822C76.2029 28.6032 75.6765 27.9936 75.4065 27.1533C75.1366 26.3131 75.2069 25.5032 75.6176 24.7237C76.0199 23.961 76.6452 23.4424 77.4935 23.1677C78.3418 22.8931 79.1574 22.9453 79.9403 23.3243C80.7272 23.7161 81.2557 24.3321 81.5256 25.1723C81.7956 26.0125 81.7232 26.816 81.3084 27.5828C80.8977 28.3623 80.2683 28.8893 79.4199 29.1639Z" fill="#C8C8C8"/>
<path d="M12.9725 145.81C13.2998 143.303 14.3659 141.395 16.1707 140.087C18.0349 138.719 20.4393 138.197 23.3839 138.522C26.1592 138.828 28.3282 139.794 29.8908 141.42C31.4289 143.029 32.0727 144.978 31.8222 147.265C31.5121 150.097 29.8711 152.197 26.8994 153.564C25.512 154.192 24.5568 154.786 24.0338 155.347C23.5107 155.909 23.1954 156.681 23.0876 157.665L22.9719 158.722L17.7927 158.151L17.8802 156.99C17.9188 155.433 18.2743 154.174 18.9467 153.212C19.6002 152.301 20.6562 151.509 22.1146 150.836C23.4629 150.204 24.3985 149.608 24.9215 149.046C25.4576 148.487 25.7773 147.735 25.8807 146.791C25.9855 145.833 25.7326 145.011 25.1221 144.325C24.4985 143.637 23.633 143.232 22.5255 143.11C21.4049 142.986 20.4622 143.225 19.6974 143.827C18.9341 144.416 18.4579 145.272 18.269 146.395L12.9725 145.81ZM19.4067 167.978C18.5207 167.88 17.805 167.491 17.2596 166.812C16.6997 166.145 16.4678 165.372 16.5639 164.495C16.66 163.617 17.0542 162.907 17.7466 162.364C18.4245 161.834 19.2065 161.617 20.0925 161.715C20.9785 161.813 21.7014 162.195 22.2613 162.863C22.8198 163.543 23.0509 164.322 22.9548 165.2C22.8587 166.078 22.4652 166.781 21.7743 167.31C21.0819 167.853 20.2927 168.075 19.4067 167.978Z" fill="#C8C8C8"/>
</g>
</svg>
