<svg width="281" height="224" viewBox="0 0 281 224" fill="none" xmlns="http://www.w3.org/2000/svg">
<path opacity="0.1" d="M231.425 86.3493V120.209H291.121V86.3493H231.425ZM231.425 121.273V144.221C238.385 142.003 246.318 142.914 253.522 144.738C259.084 146.167 264.525 148.082 270.087 149.449C272.58 150.088 275.102 150.574 277.656 150.878L278.294 150.939L279.206 151.03L280.118 151.091C280.148 151.091 280.178 151.091 280.209 151.091C280.33 151.091 280.482 151.091 280.604 151.121H280.756C280.908 151.121 281.09 151.151 281.242 151.151C281.485 151.151 281.698 151.151 281.941 151.182H282.245C282.488 151.182 282.701 151.182 282.944 151.182H283.461H283.887C284.069 151.182 284.251 151.182 284.434 151.151C284.707 151.151 285.011 151.121 285.285 151.121L285.832 151.091C286.045 151.091 286.288 151.06 286.5 151.03C286.956 150.999 287.412 150.939 287.868 150.878C288.051 150.848 288.233 150.848 288.415 150.817L288.689 150.787C289.145 150.726 289.601 150.665 290.057 150.574C290.391 150.513 290.725 150.452 291.06 150.392V121.304H231.425V121.273ZM275.801 48.629V49.6624H231.425V85.2854H291.121V49.6928H288.142V48.6594H291.121V25.62C279.51 16.2583 265.953 8.93309 250.817 5.55924C244.464 4.16107 237.96 3.46198 231.425 3.52277V48.629H275.801ZM139.328 48.4466L139.54 48.6594H224.738V3.85712C209.571 5.13371 194.768 10.2097 182.853 18.6595C177.139 22.702 171.972 27.5045 165.559 30.6048C162.185 32.2765 158.507 33.2187 154.738 33.4011L139.328 48.4466ZM138.75 30.0576V40.2096L146.987 32.1853C143.917 31.1215 141.516 30.392 138.75 30.0576ZM138.477 157.595H138.75V179.814C141.851 179.571 144.951 179.267 148.021 178.872C161.79 177.078 175.315 173.583 188.203 168.446C189.601 167.899 190.969 167.322 192.337 166.714C193.249 166.319 194.16 165.893 195.042 165.498C196.379 164.89 197.717 164.252 199.054 163.583C204.951 160.696 210.604 157.413 216.045 153.735C216.379 153.492 216.713 153.279 217.048 153.036C217.717 152.58 218.385 152.094 219.054 151.638C219.388 151.395 219.723 151.151 220.057 150.908L220.756 150.392C221.425 149.875 222.124 149.389 222.792 148.872C223.431 148.416 224.069 147.96 224.707 147.534V121.273H156.288C156.349 121.121 156.379 120.969 156.44 120.817C156.379 120.969 156.349 121.121 156.288 121.273H138.75V157.565L138.477 157.595ZM138.75 49.6928V85.3158H224.738V49.6928H138.75ZM138.75 86.3493V120.24H224.738V86.3493H138.75ZM121.577 31.0911L132.094 41.3342V30.0272C128.537 30.24 125.042 30.6048 121.577 31.0911ZM48.4161 86.3493V120.209H132.063V86.3493H48.4161ZM68.6288 170.027C81.3036 174.86 94.5558 177.99 108.051 179.388H108.112C110.665 179.662 113.218 179.875 115.802 180.027H115.893C121.273 180.331 126.683 180.392 132.063 180.209V121.273H48.4161L48.7201 160.27L68.6288 170.027ZM25.2551 120.24H41.7596V86.3493H35.2247C34.556 87.5347 33.8873 88.7505 33.2794 89.9663C32.9451 90.6046 32.6107 91.2733 32.3068 91.9419C27.9907 100.848 25.2551 110.635 25.2551 120.24ZM25.2551 121.273C25.3767 128.142 26.9269 134.921 30.3311 141.152C33.1578 146.319 37.0788 150.878 41.7292 154.829V121.273H25.2551ZM35.8326 85.3158H41.7596V76.5013C39.6016 79.328 37.6259 82.2763 35.8326 85.3158ZM72.8842 48.6594H130.088L130.3 48.4466L129.996 48.1427L113.917 32.4588C109.145 33.4619 104.434 34.7081 99.7838 36.2278C99.3582 36.3798 98.9023 36.5318 98.4768 36.6534C89.5102 39.6929 80.9388 43.7354 72.8842 48.6594ZM48.4161 68.5074V85.3158H121.79H132.063V50.6655L130.878 49.7232H71.2124C62.8234 54.9816 55.1638 61.3037 48.4161 68.5074Z" fill="#FF6366"/>
<path opacity="0.1" d="M156.075 51.1822H138.75V85.3158H156.075V51.1822Z" fill="#FF6366"/>
<path opacity="0.1" d="M138.75 86.3493V120.24H224.738V105.62H178.932V114.252H156.075V86.3493H138.75Z" fill="#FF6366"/>
<path opacity="0.1" d="M138.477 157.595H138.75V179.814C141.851 179.571 144.951 179.267 148.021 178.872C161.82 177.109 175.316 173.583 188.233 168.446C191.942 166.957 195.559 165.346 199.085 163.613C204.951 160.726 210.635 157.413 216.045 153.765C217.413 152.854 218.72 151.911 220.057 150.939C220.969 150.27 221.881 149.571 222.793 148.933C223.431 148.477 224.069 148.021 224.708 147.595V121.334H156.319C156.379 121.182 156.41 121.03 156.471 120.878C156.41 121.03 156.379 121.182 156.319 121.334H138.75V157.626L138.477 157.595Z" fill="#FF6366"/>
<path opacity="0.1" d="M93.553 48.6594H104.83V45.5287H99.7536V36.2278C99.328 36.3798 98.8721 36.5318 98.4466 36.6534V45.5287H93.553V48.6594Z" fill="#FF6366"/>
<path opacity="0.1" d="M66.3492 85.3158H121.79H121.759H121.79H132.063V51.1822H129.145V76.4101H115.832V61.4861H104.829V49.6928H93.5528V61.4861H82.5498V76.4101H66.3188V85.3158H66.3492Z" fill="#FF6366"/>
<path opacity="0.1" d="M66.3493 86.3493V120.209H132.063V86.3493H66.3493ZM68.629 170.027C81.3037 174.86 94.5559 177.99 108.051 179.388H108.112C110.665 179.662 113.218 179.875 115.802 180.027H115.893C121.273 180.331 126.683 180.392 132.063 180.209V121.273H66.3493V133.279H48.4163L48.5074 160.088" fill="#FF6366"/>
<path opacity="0.1" d="M40.5742 121.273H25.2551C25.3767 128.142 26.9572 134.89 30.3311 141.152C33.1578 146.349 37.0788 150.878 41.7292 154.829V133.279H40.5742V121.273Z" fill="#FF6366"/>
<path opacity="0.1" d="M25.2551 120.24H40.6046V91.942H32.3068C27.9907 100.848 25.2551 110.635 25.2551 120.24Z" fill="#FF6366"/>
<path opacity="0.1" d="M148.021 60.6655H138.75V71.3645H148.021V60.6655Z" fill="#FF6366"/>
<path opacity="0.1" d="M148.021 82.8538H138.75V85.3158H148.021V82.8538Z" fill="#FF6366"/>
<path opacity="0.1" d="M148.021 86.3493H138.75V93.5225H148.021V86.3493Z" fill="#FF6366"/>
<path opacity="0.1" d="M148.021 105.012H138.75V115.711H148.021V105.012Z" fill="#FF6366"/>
<path opacity="0.1" d="M148.021 127.2H138.75V137.899H148.021V127.2Z" fill="#FF6366"/>
<path opacity="0.1" d="M138.75 157.595H138.477H138.75V160.088H148.021V149.389H138.75V157.595Z" fill="#FF6366"/>
<path opacity="0.1" d="M138.75 171.547V179.814C141.851 179.571 144.951 179.267 148.021 178.872V171.577L138.75 171.547Z" fill="#FF6366"/>
<path opacity="0.1" d="M115.924 89.6319H108.082V96.5924H115.924V89.6319Z" fill="#FF6366"/>
<path opacity="0.1" d="M86.015 89.6319H78.1731V96.5924H86.015V89.6319Z" fill="#FF6366"/>
<path opacity="0.1" d="M115.924 106.805H108.082V113.766H115.924V106.805Z" fill="#FF6366"/>
<path opacity="0.1" d="M86.015 106.805H78.1731V113.766H86.015V106.805Z" fill="#FF6366"/>
<path opacity="0.1" d="M115.924 123.978H108.082V130.939H115.924V123.978Z" fill="#FF6366"/>
<path opacity="0.1" d="M86.015 123.978H78.1731V130.939H86.015V123.978Z" fill="#FF6366"/>
<path opacity="0.1" d="M115.924 141.182H108.082V148.142H115.924V141.182Z" fill="#FF6366"/>
<path opacity="0.1" d="M86.015 141.182H78.1731V148.142H86.015V141.182Z" fill="#FF6366"/>
<path opacity="0.1" d="M115.924 158.355H108.082V165.316H115.924V158.355Z" fill="#FF6366"/>
<path opacity="0.1" d="M86.015 158.355H78.1731V165.316H86.015V158.355Z" fill="#FF6366"/>
<path opacity="0.1" d="M115.893 180.027V175.528H108.082V179.388L115.893 180.027Z" fill="#FF6366"/>
<path opacity="0.1" d="M138.477 157.595H138.75H138.477ZM156.288 121.273C156.349 121.121 156.379 120.969 156.44 120.817C156.379 120.969 156.349 121.121 156.288 121.273ZM275.802 48.6594V49.6929H288.112V48.6594H275.802ZM138.477 157.595H138.75H138.477ZM156.288 121.273C156.349 121.121 156.379 120.969 156.44 120.817C156.379 120.969 156.349 121.121 156.288 121.273ZM138.477 157.595H138.75H138.477ZM156.288 121.273C156.349 121.121 156.379 120.969 156.44 120.817C156.379 120.969 156.349 121.121 156.288 121.273Z" fill="#FF6366"/>
<path opacity="0.1" d="M328.051 213.005H23.5227V223.765H328.051V213.005Z" fill="#FF6366"/>
<path d="M34.2523 144.586H32.7021V179.237H34.2523V144.586Z" fill="#535461"/>
<path d="M43.9177 179.115L43.8265 180.665L43.7049 182.884L43.6442 183.796L43.5226 186.015L43.4618 186.926L43.3402 189.115L41.7901 214.191C41.6381 216.44 39.784 218.173 37.5651 218.173H29.4497C27.2004 218.173 25.3463 216.44 25.2248 214.191L23.6442 189.115L23.5226 186.926L23.4618 186.015L23.3099 183.796L23.2491 182.884L23.1275 180.665L23.0363 179.115C22.9755 177.899 23.8874 176.866 25.1032 176.775C25.1336 176.775 25.1944 176.775 25.2248 176.775H41.7293C42.9451 176.775 43.9177 177.747 43.9177 178.963C43.9177 179.024 43.9177 179.085 43.9177 179.115Z" fill="#3F3D56"/>
<path d="M43.8267 180.695L43.6747 182.884H23.2493L23.1277 180.695H43.8267Z" fill="#9D9CB5"/>
<path d="M43.6441 183.796L43.4921 186.015H23.4618L23.3098 183.796H43.6441Z" fill="#9D9CB5"/>
<path d="M43.4315 186.926L43.3099 189.145H23.6443L23.5227 186.926H43.4315Z" fill="#9D9CB5"/>
<path d="M20.7872 157.565C29.7537 164.039 33.4923 174.191 33.4923 174.191C33.4923 174.191 22.7021 173.826 13.7355 167.322C4.76899 160.817 1 150.696 1 150.696C1 150.696 11.8206 151.091 20.7872 157.565Z" fill="#FF6366"/>
<path d="M1 150.696C1 150.696 12.2158 156.927 15.8024 162.063C19.389 167.2 33.4619 174.161 33.4619 174.161" stroke="#535461" stroke-width="2" stroke-miterlimit="10"/>
<path d="M26.5621 144.495C31.4557 148.021 33.4618 153.553 33.4618 153.553C33.4618 153.553 27.5955 153.34 22.7019 149.814C17.8083 146.288 15.8022 140.756 15.8022 140.756C15.8022 140.756 21.6685 140.969 26.5621 144.495Z" fill="#FF6366"/>
<path d="M15.8022 140.756C15.8022 140.756 21.9116 144.161 23.8569 146.957C25.8022 149.753 33.4618 153.553 33.4618 153.553" stroke="#535461" stroke-width="2" stroke-miterlimit="10"/>
<path d="M40.5742 153.249C34.9815 159.419 33.7961 167.443 33.7961 167.443C33.7961 167.443 41.6989 165.498 47.2915 159.328C52.8842 153.158 54.0696 145.133 54.0696 145.133C54.0696 145.133 46.1669 147.109 40.5742 153.249Z" fill="#FF6366"/>
<path d="M54.0696 145.164C54.0696 145.164 46.7748 151.486 44.9207 155.832C43.0666 160.179 33.7961 167.474 33.7961 167.474" stroke="#535461" stroke-width="2" stroke-miterlimit="10"/>
<path opacity="0.2" d="M124.343 24.161C127.667 24.161 130.361 21.4666 130.361 18.1428C130.361 14.819 127.667 12.1246 124.343 12.1246C121.019 12.1246 118.325 14.819 118.325 18.1428C118.325 21.4666 121.019 24.161 124.343 24.161Z" stroke="#FF6366" stroke-miterlimit="10"/>
<path opacity="0.2" d="M124.343 29.0242C130.353 29.0242 135.225 24.1525 135.225 18.1428C135.225 12.1332 130.353 7.26139 124.343 7.26139C118.333 7.26139 113.462 12.1332 113.462 18.1428C113.462 24.1525 118.333 29.0242 124.343 29.0242Z" stroke="#FF6366" stroke-miterlimit="10"/>
<path opacity="0.2" d="M124.343 35.2856C133.811 35.2856 141.486 27.6105 141.486 18.1428C141.486 8.67509 133.811 1 124.343 1C114.875 1 107.2 8.67509 107.2 18.1428C107.2 27.6105 114.875 35.2856 124.343 35.2856Z" stroke="#FF6366" stroke-miterlimit="10"/>
<path d="M125.042 18.8419V28.0516C125.042 28.4467 124.738 28.7507 124.343 28.7507C123.948 28.7507 123.644 28.4467 123.644 28.0516V18.8419C123.644 18.4468 123.948 18.1428 124.343 18.1428C124.738 18.1428 125.042 18.4468 125.042 18.8419Z" fill="#6F758D"/>
<path d="M138.902 43.4923V57.8083C138.902 60.1791 136.957 62.1244 134.586 62.1244H128.386C126.015 62.1244 124.07 60.1791 124.07 57.8083V43.4923C124.07 41.1215 126.015 39.1762 128.386 39.1762H134.586C136.957 39.1762 138.902 41.0911 138.902 43.4923Z" fill="#6F758D"/>
<path d="M114.556 97.1699L113.37 111.76C113.37 111.76 111.608 110.149 109.298 108.051C105.042 104.161 98.9936 98.5985 99.0544 98.4769C99.176 98.2642 100.118 85.0119 100.24 81.6988C100.331 79.328 100.848 77.018 101.76 74.8296C101.972 74.404 102.58 71.6381 102.854 70.3615C102.945 69.9664 103.006 69.6928 103.006 69.6928L104.981 68.9025C104.981 68.9025 113.249 78.1426 113.249 78.325C113.249 78.5074 112.671 85.5894 112.671 85.5894L112.094 86.1061L111.851 86.3189C111.851 86.3189 111.456 89.4192 111.182 90.3614C110.908 91.2429 111.212 92.9146 111.243 93.0666C111.212 93.5529 111.152 94.0392 111.03 94.4952C110.969 94.6775 110.908 94.8599 110.848 95.0423C110.756 95.3462 110.757 95.711 110.908 95.9845C111.06 96.41 111.273 96.8052 111.516 97.1699H114.556Z" fill="#3F3D56"/>
<path d="M164.738 98.4465C164.829 98.6289 155.984 106.684 152.154 110.149L150.422 111.729L149.237 97.1396H152.276C152.276 97.1396 153.279 95.6806 152.945 95.0119C152.61 94.3432 152.55 93.0362 152.55 93.0362C152.55 93.0362 152.884 91.2429 152.61 90.3007C152.337 89.3584 151.942 86.2581 151.942 86.2581L151.547 85.9238L151.091 85.5287C151.091 85.5287 150.513 78.4466 150.513 78.2642C150.513 78.0819 158.781 68.8418 158.781 68.8418L160.756 69.632C160.756 69.632 160.817 69.8448 160.878 70.1792C161.151 71.395 161.79 74.3129 162.002 74.7384C162.914 76.9269 163.431 79.2369 163.522 81.6077C163.674 84.9815 164.616 98.2338 164.738 98.4465Z" fill="#3F3D56"/>
<path d="M164.768 222.276C164.252 223.34 160.513 222.641 159.753 222.58C158.993 222.519 153.583 219.783 153.492 219.176C153.401 218.568 151.546 217.23 150.999 217.23C150.452 217.23 147.929 215.194 147.686 214.89C147.626 214.738 147.595 214.586 147.595 214.434C147.504 213.188 147.686 210.027 147.686 210.027L158.568 210.635L163.856 218.598C163.856 218.598 164.647 220.118 164.799 221.334C164.92 221.607 164.89 221.972 164.768 222.276Z" fill="#3F3D56"/>
<path opacity="0.1" d="M164.768 222.276C164.252 223.34 160.513 222.641 159.753 222.58C158.993 222.519 153.583 219.783 153.492 219.176C153.401 218.568 151.546 217.23 150.999 217.23C150.452 217.23 147.929 215.194 147.686 214.89C147.626 214.738 147.595 214.586 147.595 214.434C147.504 213.188 147.686 210.027 147.686 210.027L158.568 210.635L163.856 218.598C163.856 218.598 164.647 220.118 164.799 221.334C164.92 221.607 164.89 221.972 164.768 222.276Z" fill="black"/>
<path opacity="0.1" d="M164.768 222.276C164.252 223.34 160.513 222.641 159.753 222.58C158.993 222.519 153.583 219.784 153.492 219.176C153.401 218.568 151.547 217.23 150.999 217.23C150.452 217.23 147.93 215.194 147.686 214.89C147.626 214.738 147.595 214.586 147.595 214.434L151.121 216.683C151.121 216.683 153.37 218.112 153.978 218.963C154.586 219.814 159.328 221.607 159.692 221.638C159.996 221.668 163.097 221.06 164.799 221.334C164.92 221.638 164.89 221.972 164.768 222.276Z" fill="black"/>
<path d="M113.31 215.711C113.31 215.711 111.76 217.625 109.693 217.777C108.568 217.777 107.656 218.689 107.596 219.814C107.596 219.814 107.96 220.969 102.975 222.61C99.9663 223.583 98.0818 223.279 96.9876 222.61C96.3797 222.276 95.9542 221.729 95.7414 221.091C95.4071 219.875 102.064 210.756 102.064 210.756L108.112 210.391L112.428 212.337L113.097 214.799L113.31 215.711Z" fill="#3F3D56"/>
<path opacity="0.1" d="M113.31 215.711C113.31 215.711 111.76 217.625 109.693 217.777C108.568 217.777 107.656 218.689 107.596 219.814C107.596 219.814 107.96 220.969 102.975 222.61C99.9663 223.583 98.0818 223.279 96.9876 222.61C96.3797 222.276 95.9542 221.729 95.7414 221.091C95.4071 219.875 102.064 210.756 102.064 210.756L108.112 210.391L112.428 212.337L113.097 214.799L113.31 215.711Z" fill="black"/>
<path opacity="0.1" d="M113.31 215.711C113.31 215.711 111.76 217.625 109.693 217.777C108.568 217.777 107.656 218.689 107.596 219.814C107.596 219.814 107.96 220.969 102.976 222.61C99.9665 223.583 98.082 223.279 96.9878 222.61C99.8145 222.306 106.076 220.513 106.714 219.905C107.474 219.145 108.416 217.078 109.055 217.048C109.511 217.018 111.76 215.68 113.097 214.829L113.31 215.711Z" fill="black"/>
<path d="M159.662 207.322C158.993 208.902 159.662 212.124 159.662 212.124C159.662 212.124 149.601 212.641 147.109 210.999C144.617 209.358 142.914 199.875 142.914 199.875C142.914 199.875 143.279 188.75 142.914 188.233C142.55 187.717 141.182 185.224 141.638 184.708C142.094 184.191 141.273 181.395 140.665 180.209C140.057 179.024 140.3 175.559 140.3 175.559L138.811 166.41L136.471 155.528L134.525 148.234C134.525 148.234 132.489 142.307 131.82 139.814C131.152 137.322 130.422 139.601 130.422 139.601C130.361 142.003 124.799 152.823 124.799 152.823C124.799 152.823 123.978 159.358 123.066 161.668C122.155 163.978 121.182 172.094 121.182 172.094C121.182 172.094 119.753 188.598 118.568 191.395C117.383 194.191 116.562 198.325 116.562 198.325C116.562 198.325 116.866 204.039 116.106 204.495C115.346 204.951 115.498 208.385 115.498 208.385C115.498 208.385 115.954 211.698 114.222 212.215C112.489 212.732 112.793 213.856 112.793 213.856C112.793 213.856 103.188 215.437 101.608 211.242C100.027 207.048 102.215 205.923 102.307 205.619C102.398 205.315 103.614 204.799 102.58 203.583C101.547 202.367 103.948 199.084 103.948 199.084C103.948 199.084 104.313 194.434 105.012 194.282C105.711 194.13 105.468 187.382 105.468 187.382L106.228 180.331C106.228 180.331 107.2 164.556 106.987 163.948C106.775 163.34 106.896 160.331 107.656 158.933C108.416 157.534 108.994 144.373 108.994 144.373C108.994 144.373 108.842 137.899 109.449 136.714C109.784 136.045 109.966 133.431 110.057 131.273C110.118 129.632 110.149 128.294 110.149 128.294L118.568 125.133L129.389 121.668L138.477 126.015L151.759 128.568L151.911 130.848L154.343 165.893L155.772 179.115C155.772 179.115 156.379 185.346 156.44 186.471C156.501 187.595 157.261 194.951 157.261 194.951C157.261 194.951 158.841 198.477 157.869 199.692C156.896 200.908 157.261 201.881 157.261 201.881C157.261 201.881 160.331 205.741 159.662 207.322Z" fill="#3F3D56"/>
<path opacity="0.1" d="M143.887 56.0758L140.453 117.626L121.668 113.674L117.96 89.024L121.638 55.8934L124.404 56.2582L129.298 56.8661L134.13 57.17L139.389 56.5925L143.887 56.0758Z" fill="black"/>
<path d="M143.887 56.5317L140.453 118.082L121.668 114.13L117.96 89.4495L121.638 56.3493L124.404 56.7141L129.298 57.322L134.13 57.6259L139.389 57.0484L143.887 56.5317Z" fill="#FF6366"/>
<path d="M128.477 58.1731L135.225 58.3859L133.31 61.0606C133.31 61.0606 133.431 66.4405 134.343 67.9907C135.255 69.5408 134.981 93.3401 134.981 93.3401L133.188 96.7444L130.118 92.9146L130.149 61.4862L128.477 58.1731Z" fill="#3F3D56"/>
<path opacity="0.1" d="M128.477 58.1731L135.225 58.3859L133.31 61.0606C133.31 61.0606 133.431 66.4405 134.343 67.9907C135.255 69.5408 134.981 93.3401 134.981 93.3401L133.188 96.7444L130.118 92.9146L130.149 61.4862L128.477 58.1731Z" fill="black"/>
<path opacity="0.1" d="M139.054 51.2126L132.762 58.1731L136.349 61.9421L142.337 56.1366L139.054 51.2126Z" fill="black"/>
<path d="M138.629 51.2126L132.732 57.7475L136.349 61.5165L142.337 55.711L139.419 51.3038C139.267 51.091 138.994 50.9998 138.751 51.1518C138.72 51.1518 138.659 51.1822 138.629 51.2126Z" fill="#FF6366"/>
<path opacity="0.1" d="M130.088 57.8388L123.705 51.4558L123.097 54.7993L126.015 62.1245L130.088 57.8388Z" fill="black"/>
<path d="M130.3 57.4132L123.917 50.9998L123.31 54.3433L126.258 61.6685L130.3 57.4132Z" fill="#FF6366"/>
<path opacity="0.1" d="M151.79 130.848C148.72 132.307 145.437 133.279 142.094 133.674C135.893 134.465 131.851 126.592 131.851 126.592L129.48 129.662C128.72 132.945 117.261 133.766 112.611 132.519C111.638 132.276 110.726 131.851 109.936 131.243C109.997 129.601 110.027 128.264 110.027 128.264L118.447 125.103L129.267 121.638L138.355 125.984L151.638 128.538L151.79 130.848Z" fill="black"/>
<path opacity="0.1" d="M143.887 56.5317L140.422 118.082L121.638 114.13L117.93 89.4495L121.607 56.319L124.373 56.6837C124.313 57.8995 124.161 59.0849 123.978 60.2703C123.522 62.3676 126.319 77.3219 126.319 77.3219C126.319 77.3219 131.607 94.0696 133.978 91.6684C136.349 89.2672 139.723 76.5013 139.723 76.5013C142.003 71.7596 139.753 58.5074 139.601 58.2338C139.48 57.8387 139.419 57.4436 139.389 57.018L143.887 56.5317Z" fill="black"/>
<path opacity="0.1" d="M152.003 104.13L152.154 110.149L150.422 111.729L149.237 97.1395H151.82L152.003 104.13Z" fill="black"/>
<path opacity="0.1" d="M111.243 93.0362C111.212 93.5225 111.152 94.0088 111.03 94.4951C111.03 94.3736 111.03 94.2824 111 94.2824C110.908 94.2216 111.03 93.6745 111.243 93.0362Z" fill="black"/>
<path opacity="0.1" d="M114.556 97.1699L113.371 111.76C113.371 111.76 111.608 110.149 109.298 108.051L109.571 105.468C109.571 105.468 110.544 99.1152 110.909 95.9845C111.061 96.41 111.273 96.8052 111.516 97.1699H114.556Z" fill="black"/>
<path d="M124.738 51.243C124.738 51.243 123.614 49.6017 122.063 52.7932C122.063 52.7932 118.051 55.1336 116.653 55.3767C115.255 55.6199 110.331 57.3524 110.331 57.3524C109.601 57.8995 108.69 58.1731 107.778 58.1731C106.228 58.1731 104.951 61.5469 105.164 63.401C105.377 65.2551 105.042 66.5925 103.614 66.6837C102.185 66.7749 102.975 69.7232 102.975 69.7232L112.489 80.6046C112.489 80.6046 113.097 90.635 112.793 90.9389C112.489 91.2429 111.395 94.1608 111.668 94.2824C111.942 94.404 110.24 105.468 110.24 105.468L107.96 126.987C107.96 126.987 107.96 130.604 112.611 131.82C117.261 133.066 128.72 132.246 129.48 128.963L131.851 125.893C131.851 125.893 135.893 133.796 142.094 132.975C148.294 132.155 152.246 129.936 152.246 129.936L151.577 104.13L151.121 85.559L160.817 69.6624C160.817 69.6624 158.234 64.708 158.446 62.4588C158.659 60.2095 159.115 58.5074 153.613 57.7172C153.613 57.7172 148.963 57.0181 146.227 55.1336C144.586 54.009 142.823 53.0971 140.939 52.4588C140.939 52.4588 139.693 50.2096 138.629 51.1822C138.629 51.1822 139.419 54.6473 139.328 55.2552C139.237 55.8631 139.48 58.629 139.662 58.9026C139.845 59.1761 142.094 72.4284 139.784 77.17C139.784 77.17 136.41 89.9359 134.039 92.3371C131.668 94.7383 126.38 77.9906 126.38 77.9906C126.38 77.9906 123.614 63.0363 124.039 60.939C124.465 58.8418 124.738 51.243 124.738 51.243Z" fill="#3F3D56"/>
<path d="M132.793 100.453C133.699 100.453 134.434 99.7177 134.434 98.8112C134.434 97.9047 133.699 97.1699 132.793 97.1699C131.886 97.1699 131.151 97.9047 131.151 98.8112C131.151 99.7177 131.886 100.453 132.793 100.453Z" fill="#3F3D56"/>
<path d="M132.793 108.234C133.699 108.234 134.434 107.499 134.434 106.592C134.434 105.686 133.699 104.951 132.793 104.951C131.886 104.951 131.151 105.686 131.151 106.592C131.151 107.499 131.886 108.234 132.793 108.234Z" fill="#3F3D56"/>
<path opacity="0.1" d="M132.793 100.453C133.699 100.453 134.434 99.7177 134.434 98.8112C134.434 97.9047 133.699 97.1699 132.793 97.1699C131.886 97.1699 131.151 97.9047 131.151 98.8112C131.151 99.7177 131.886 100.453 132.793 100.453Z" fill="black"/>
<path opacity="0.1" d="M132.793 108.234C133.699 108.234 134.434 107.499 134.434 106.592C134.434 105.686 133.699 104.951 132.793 104.951C131.886 104.951 131.151 105.686 131.151 106.592C131.151 107.499 131.886 108.234 132.793 108.234Z" fill="black"/>
<path opacity="0.1" d="M147.626 205.072C147.626 205.072 154.404 205.589 155.073 206.136C155.741 206.683 147.626 205.072 147.626 205.072Z" fill="black"/>
<path opacity="0.1" d="M107.261 199.753C107.261 199.753 108.69 201.546 108.082 202.398C107.474 203.249 107.261 199.753 107.261 199.753Z" fill="black"/>
<path opacity="0.1" d="M108.963 206.227C108.963 206.227 111.577 204.495 112.641 205.65C113.705 206.805 108.963 206.227 108.963 206.227Z" fill="black"/>
<path opacity="0.1" d="M138.902 43.4923V47.8388C138.355 48.0819 137.778 48.2035 137.17 48.2035H125.772C125.164 48.2035 124.586 48.0819 124.039 47.8388V43.4923C124.039 41.1215 125.984 39.1762 128.355 39.1762H134.586C136.957 39.1762 138.872 41.0911 138.902 43.4923Z" fill="black"/>
<path opacity="0.1" d="M125.042 24.8601V28.0516C125.042 28.4467 124.738 28.7507 124.343 28.7507C123.948 28.7507 123.644 28.4467 123.644 28.0516V25.3464C124.1 25.1033 124.556 24.9513 125.042 24.8601Z" fill="black"/>
<path d="M125.103 25.1337H137.839C139.845 25.1337 141.486 26.775 141.486 28.7811V43.7962C141.486 45.8023 139.845 47.4436 137.839 47.4436H125.103C123.097 47.4436 121.456 45.8023 121.456 43.7962V28.7811C121.456 26.775 123.097 25.1337 125.103 25.1337Z" fill="#DCDFED"/>
<path opacity="0.1" d="M137.17 40.0576V49.1457H125.802V40.0272C126.562 39.4497 127.474 39.1457 128.386 39.1457H134.586C135.498 39.1761 136.41 39.4801 137.17 40.0576Z" fill="black"/>
<path opacity="0.1" d="M137.292 25.1337H125.559V48.4163H137.292V25.1337Z" fill="black"/>
<path d="M137.2 25.1337H125.802V48.4163H137.2V25.1337Z" fill="#6F758D"/>
<path d="M130.3 33.1579H126.623V33.8266H130.3V33.1579Z" fill="#DCDFED"/>
<path d="M136.44 33.1579H132.762V33.8266H136.44V33.1579Z" fill="#DCDFED"/>
<path d="M134.586 40.6959H128.386V41.091H134.586V40.6959Z" fill="#DCDFED"/>
</svg>
