<svg width="375" height="774" viewBox="0 0 375 774" fill="none" xmlns="http://www.w3.org/2000/svg">
<path opacity="0.1" d="M338.465 391.553C298.878 382.618 268.423 350.211 248.813 314.644C229.204 279.077 218.145 239.548 201.406 202.603C187.303 171.624 169.297 142.483 147.848 116.097C117.166 78.2966 74.6616 44.4027 25.9468 45.3975C-28.219 46.4518 -76.0933 98.341 -72.7294 152.448C-71.019 179.989 -58.2336 205.402 -51.6457 232.195C-45.0578 258.989 -46.3329 291.121 -67.2258 309.146C-86.569 325.851 -115.659 324.313 -140.1 317.208C-159.033 311.707 -181.407 303.913 -196.789 316.313C-211.655 328.311 -209.484 351.491 -203.352 369.563C-183.407 428.54 -134.597 477.005 -75.4478 496.433C-54.3353 503.425 -32.0738 506.859 -11.8228 516.089C41.2428 540.224 69.2209 597.362 104.777 643.595C135 682.773 172.57 715.751 215.422 740.578C241.064 755.429 269.634 767.467 299.299 766.251C320.644 765.439 341.074 757.742 360.988 749.873C382.221 741.488 403.283 732.7 424.172 723.626C436.74 718.17 449.423 712.485 459.927 703.702C479.04 687.915 489.321 663.64 494.552 639.367C506.968 581.754 493.566 519.102 458.642 471.663C423.717 424.225 367.957 392.919 309.319 387.663" fill="#6C63FF"/>
</svg>
