<svg width="375" height="812" viewBox="0 0 375 812" fill="none" xmlns="http://www.w3.org/2000/svg">
<path opacity="0.1" d="M134.999 230.375C131.13 270.774 102.825 305.074 70.0166 329.015C37.2081 352.955 -0.610096 368.913 -35.1478 390.18C-64.0996 408.079 -90.736 429.618 -114.204 454.225C-147.831 489.431 -176.091 535.872 -168.958 584.072C-161.077 637.672 -103.562 678.617 -50.3125 668.453C-23.2074 663.281 0.389915 647.391 26.1377 637.475C51.8855 627.559 83.9221 624.77 104.439 643.221C123.451 660.302 125.597 689.354 121.632 714.496C118.564 733.971 113.655 757.151 127.896 770.845C141.674 784.079 164.395 779 181.549 770.636C237.538 743.41 279.458 688.875 291.267 627.747C295.539 605.921 296.136 583.404 302.737 562.15C319.984 506.463 373.135 471.499 414.513 430.394C449.564 395.469 477.537 354.038 496.76 308.396C508.257 281.085 516.594 251.224 511.644 221.95C508.145 200.878 497.932 181.582 487.614 162.821C476.616 142.815 465.241 123.031 453.604 103.453C446.606 91.6742 439.366 79.81 429.327 70.4984C411.255 53.5297 385.877 46.3944 361.138 44.2679C302.418 39.2199 241.958 60.4198 199.306 101.051C156.653 141.682 132.632 200.946 134.818 259.78" fill="#6C63FF"/>
</svg>
